<svg xmlns="http://www.w3.org/2000/svg" viewBox="0 0 128 128">
  <!-- Fondo circular con gradiente morado -->
  <defs>
    <linearGradient id="grad1" x1="0%" y1="0%" x2="100%" y2="100%">
      <stop offset="0%" style="stop-color:#6b2181;stop-opacity:1" />
      <stop offset="100%" style="stop-color:#8b2a9b;stop-opacity:1" />
    </linearGradient>
    <linearGradient id="sunGrad" x1="0%" y1="0%" x2="100%" y2="100%">
      <stop offset="0%" style="stop-color:#FFD700;stop-opacity:1" />
      <stop offset="100%" style="stop-color:#FFA500;stop-opacity:1" />
    </linearGradient>
  </defs>
  
  <!-- Círculo de fondo -->
  <circle cx="64" cy="64" r="60" fill="url(#grad1)"/>
  
  <!-- Sol/Energía Solar -->
  <circle cx="64" cy="64" r="28" fill="url(#sunGrad)"/>
  
  <!-- Rayos del sol -->
  <g stroke="url(#sunGrad)" stroke-width="3" fill="none">
    <!-- Rayos horizontales y verticales -->
    <line x1="64" y1="20" x2="64" y2="30" stroke-linecap="round"/>
    <line x1="64" y1="98" x2="64" y2="108" stroke-linecap="round"/>
    <line x1="20" y1="64" x2="30" y2="64" stroke-linecap="round"/>
    <line x1="98" y1="64" x2="108" y2="64" stroke-linecap="round"/>
    
    <!-- Rayos diagonales -->
    <line x1="36" y1="36" x2="43" y2="43" stroke-linecap="round"/>
    <line x1="92" y1="92" x2="85" y2="85" stroke-linecap="round"/>
    <line x1="92" y1="36" x2="85" y2="43" stroke-linecap="round"/>
    <line x1="36" y1="92" x2="43" y2="85" stroke-linecap="round"/>
  </g>
  
  <!-- Panel solar estilizado (opcional, pequeño) -->
  <rect x="52" y="70" width="24" height="16" rx="2" fill="#1a1a1a" opacity="0.7"/>
  <line x1="56" y1="74" x2="72" y2="74" stroke="#FFD700" stroke-width="1.5"/>
  <line x1="56" y1="78" x2="72" y2="78" stroke="#FFD700" stroke-width="1.5"/>
  <line x1="56" y1="82" x2="72" y2="82" stroke="#FFD700" stroke-width="1.5"/>
</svg>
